<?xml version="1.0" encoding="utf-8"?>
<!-- Generator: Adobe Illustrator 15.0.0, SVG Export Plug-In . SVG Version: 6.00 Build 0)  -->
<!DOCTYPE svg PUBLIC "-//W3C//DTD SVG 1.1//EN" "http://www.w3.org/Graphics/SVG/1.1/DTD/svg11.dtd">
<svg version="1.1" id="Layer_1" xmlns="http://www.w3.org/2000/svg" xmlns:xlink="http://www.w3.org/1999/xlink" x="0px" y="0px"
	 width="512px" height="512px" viewBox="0 0 512 512" enable-background="new 0 0 512 512" xml:space="preserve">
<g>
	<g>
		<path d="M470.33,92.5H269.728l-26.936-81.354c-1.358-4.104-5.195-6.875-9.518-6.875H41.668c-22.976,0-41.669,18.693-41.669,41.669
			v332.412c0,22.976,18.693,41.669,41.669,41.669h203.145l27.073,81.369c1.364,4.097,5.195,6.86,9.514,6.86h188.932
			c22.976,0,41.669-18.692,41.669-41.669V134.17C511.999,111.194,493.306,92.5,470.33,92.5z M53.896,401.707
			c-11.919,0-21.616-9.696-21.616-21.615V47.679c0-11.919,9.697-21.616,21.616-21.616h184.364l70.691,213.517
			c0.004,0.015,0.008,0.027,0.015,0.043l53.664,162.085H53.896z M349.677,285.275c0.805,1.11,10.824,14.877,26.354,34.066
			c-4.377,5.756-9.015,11.474-13.909,17.036l-29.713-89.74h87.441c-6.196,13.031-16.938,33.813-31.691,55.736
			c-13.554-16.921-22.069-28.622-22.25-28.87c-3.25-4.482-9.519-5.481-14.002-2.23C347.426,274.523,346.428,280.791,349.677,285.275
			z M278.174,421.76h75.161l-55.502,59.084L278.174,421.76z M504.176,468.321c0,11.919-9.697,21.616-21.616,21.616H316.803
			l67.015-71.339l-0.004-0.003c0.293-0.312,0.571-0.641,0.823-0.991c1.885-2.609,2.401-5.966,1.39-9.021l-16.688-50.402
			c7.072-7.406,13.68-15.144,19.805-22.965c13.299,15.771,29.037,33.445,45.778,50.187c1.957,1.957,4.523,2.938,7.089,2.938
			c2.564,0,5.132-0.979,7.089-2.938c3.916-3.916,3.916-10.264,0-14.178c-17.461-17.461-34.013-36.244-47.687-52.632
			c21.25-30.503,35.032-59.504,40.534-71.954h21.454c5.537,0,10.026-4.489,10.026-10.026c0-5.536-4.489-10.025-10.026-10.025
			h-28.212c-0.017,0-0.036,0-0.054,0h-37.907v-18.047c0-5.537-4.489-10.026-10.026-10.026s-10.025,4.489-10.025,10.026v18.046
			h-51.406l-37.178-112.292h193.965c11.919,0,21.616,9.696,21.616,21.616v332.411H504.176z"/>
	</g>
</g>
<text transform="matrix(1 0 0 1 86.8379 290.304)" font-family="'Krungthep'" font-size="215.4739">A</text>
</svg>
